<?xml version="1.0" encoding="UTF-8"?><svg id="Lines" xmlns="http://www.w3.org/2000/svg" viewBox="0 0 500 500"><defs><style>.cls-1{stroke-width:5px;}.cls-1,.cls-2,.cls-3,.cls-4{stroke:#0e1038;stroke-miterlimit:10;}.cls-1,.cls-2,.cls-3,.cls-4,.cls-5{fill:#0e1038;}.cls-2{stroke-width:5.02px;}.cls-3{stroke-width:1.99px;}.cls-4{stroke-width:2px;}.cls-5{stroke-width:0px;}</style></defs><path class="cls-5" d="M216.56,293.63l-25.98-6.41c-5.65-1.39-11.63.05-16.02,3.87l-.62.54c-3.9,3.4-6.14,8.31-6.14,13.48v1.79c0,8.58,6.1,15.96,14.53,17.56l26.6,5.07c4.52.86,9.19-.05,13.06-2.55,5.09-3.29,8.17-8.95,8.17-15.01v-.99c0-8.23-5.61-15.39-13.6-17.36Z"/><path class="cls-5" d="M333.94,292l-.62-.54c-4.39-3.82-10.37-5.27-16.02-3.87l-25.98,6.41c-7.99,1.97-13.6,9.13-13.6,17.36v.99c0,6.06,3.07,11.72,8.17,15.01,3.86,2.5,8.54,3.41,13.06,2.55l26.6-5.07c8.43-1.61,14.53-8.98,14.53-17.56v-1.79c0-5.17-2.24-10.09-6.14-13.48Z"/><path class="cls-1" d="M135.16,176.48c1.76.6,3.65.87,5.5,1.12,45.36,6.09,91.21,8.48,136.95,7.15,29.43-.86,59.36-3.38,86.69-14.33,3.07-1.23,6.57-3.2,6.77-6.5.13-2.21-1.32-4.16-2.74-5.86-14.82-17.78-33.7-32.16-54.79-41.7-5-2.26-10.98-5.44-11.05-10.93-.06-4.72,4.4-8.06,8.35-10.63,26.39-17.09,52.96-37.76,63.45-67.39,1.42-4.01,2.53-8.29,1.84-12.49-.69-4.2-3.59-8.28-7.74-9.19-3.21-.7-6.48.52-9.6,1.54-23.41,7.6-48.72,3.83-73.31,2.79-24.59-1.03-51.58,1.73-69.19,18.92,2.38-1.67,4.76-3.34,7.14-5.01-10.41,5.66-17.82,16.16-20.72,27.65-2.91,11.49-1.53,23.84,2.8,34.87,2.17,5.53,5.12,11.39,3.51,17.1-2.1,7.46-10.65,10.67-17.99,13.19-21.26,7.32-42.88,19.03-55.64,38.19-3.61,5.42-10.6,15.44-2.67,20.38.76.48,1.58.84,2.43,1.13Z"/><path class="cls-1" d="M147.93,140.95c-2.23,1.57-30.52,21.76-26,35,2.46,7.21,16.31,9.81,44,15,16.81,3.15,30.33,4.42,38,5,12.06.91,20.49.94,36,1,15.25.06,28.67.11,46-1,21.33-1.36,37.34-3.75,45-5,27.6-4.48,50.49-8.39,52-18,.46-2.95-1.23-5.5-4-9-25.21-31.89-56-42-56-42-.55-.18-.47-.15-32-8h0c-39.97-.56-47.93,25.12-108,35-12.51,2.06-23.71,2.84-32.92,3.05-5.23.11-9.48.03-12.08-.05"/><path class="cls-2" d="M447.13,410.52c-48.22,50.21-115.77,82.15-191.16,83.89-76.75,1.77-146.88-32.31-197.6-81.8"/><path class="cls-1" d="M479.89,323.95c-1.65-4.73-4.57-9.16-7.42-13.36-23.82-35.11-47.63-70.21-71.45-105.32-1.19-1.76-2.48-3.6-4.42-4.45-2.45-1.08-5.27-.33-7.84.44-15.32,4.57-30.64,9.13-45.95,13.7l44.12-13.31c-38.93,9.73-78.47,17-118.32,21.74,19.78-3.05,39.55-6.1,59.33-9.16-65.51,10.15-133,7.32-197.43-8.26-8.67-2.1-18.24-4.33-26.16-.21-5.47,2.85-9.08,8.24-12.44,13.41-17.5,26.9-35,53.8-52.51,80.71-5.8,8.91-22.17,25.99-20.52,36.61,1.76,11.37,15.67,18.32,25.62,20.48,12.31,2.67,25.36,1.76,37.25,5.93,3.9,1.37,8.01,3.75,8.98,7.76,1.05,4.33-1.98,8.5-4.82,11.94-7.95,9.62-15.91,19.24-23.86,28.85,126.29-.76,252.58-1.53,378.87-2.29-8.09-8.98-16.18-17.96-24.27-26.94-2.49-2.76-5.12-5.85-5.28-9.57-.32-7.39,8.62-11.28,15.95-12.29,11.14-1.52,22.65-1.25,33.28-4.88s20.59-12.66,20.66-23.9c.02-2.63-.5-5.16-1.35-7.62ZM369.32,328.8c0,10.53-3.5,20.75-9.95,29.07l-10.77,13.89c-3.68,4.74-8.22,8.74-13.38,11.78l-30.43,17.94c-7.3,4.31-15.62,6.58-24.1,6.58h-48.61c-6.03,0-12.01-1.15-17.62-3.39l-15.65-6.26c-4.22-1.69-8.18-3.98-11.75-6.79l-24.07-18.98c-2.05-1.61-3.95-3.39-5.71-5.32l-12.78-14.04c-8.36-9.19-12.79-21.3-12.32-33.71l1.08-28.69c1.15-30.51,30.42-52.01,59.88-43.97l5.05,1.38c2.94.8,5.95,1.32,8.98,1.54l39.91,2.95c2.2.16,4.4.17,6.6.03l45.62-2.99c3.3-.22,6.56-.78,9.74-1.67,30.26-8.51,60.27,14.23,60.27,45.66v35Z"/><line class="cls-4" x1="56.43" y1="414.45" x2="106.43" y2="357.45"/><path class="cls-3" d="M447.43,412.45c-17.24-18.23-35.12-34.12-52.42-52.18l52.42,52.18Z"/></svg>